<?xml version="1.0" encoding="UTF-8" standalone="no"?>
<!DOCTYPE svg PUBLIC "-//W3C//DTD SVG 1.1//EN" "http://www.w3.org/Graphics/SVG/1.1/DTD/svg11.dtd">
<svg width="100%" height="100%" viewBox="0 0 217 30" version="1.1" xmlns="http://www.w3.org/2000/svg" xmlns:xlink="http://www.w3.org/1999/xlink" xml:space="preserve" xmlns:serif="http://www.serif.com/" style="fill-rule:evenodd;clip-rule:evenodd;stroke-linejoin:round;stroke-miterlimit:2;">
    <g id="Plan-de-travail1" serif:id="Plan de travail1" transform="matrix(0.200005,0,0,0.0277778,0,0)">
        <rect x="0" y="0" width="1080" height="1080" style="fill:none;"/>
        <g id="Petits-plats-Logo" serif:id="Petits plats Logo" transform="matrix(4.99988,0,0,36,12.1107,89.3682)">
            <path d="M0,25.035L0,0.226L4.962,0.226L4.962,20.806L10.065,20.806L10.065,25.035L0,25.035Z" style="fill:white;fill-rule:nonzero;"/>
            <path d="M11.474,25.035L11.474,0.226L21.398,0.226L21.398,5.018L16.521,5.018L16.521,9.853L21.201,9.853L21.201,14.519L16.521,14.519L16.521,20.2L21.723,20.2L21.723,25.035L11.474,25.035Z" style="fill:white;fill-rule:nonzero;"/>
            <path d="M29.264,25.261C26.999,25.261 25.364,24.697 24.359,23.569C23.362,22.441 22.864,20.646 22.864,18.184L22.864,15.76L27.77,15.76L27.77,18.861C27.77,19.434 27.854,19.885 28.023,20.214C28.202,20.534 28.508,20.693 28.94,20.693C29.391,20.693 29.701,20.562 29.87,20.299C30.049,20.036 30.138,19.603 30.138,19.002C30.138,18.241 30.063,17.606 29.912,17.099C29.762,16.582 29.499,16.093 29.123,15.633C28.757,15.163 28.244,14.618 27.587,13.998L25.359,11.883C23.696,10.314 22.864,8.519 22.864,6.498C22.864,4.384 23.353,2.772 24.33,1.663C25.317,0.554 26.741,0 28.602,0C30.876,0 32.487,0.606 33.437,1.818C34.395,3.031 34.874,4.873 34.874,7.344L29.828,7.344L29.828,5.639C29.828,5.3 29.729,5.037 29.532,4.849C29.344,4.661 29.085,4.567 28.757,4.567C28.362,4.567 28.071,4.68 27.883,4.906C27.704,5.122 27.615,5.404 27.615,5.751C27.615,6.099 27.709,6.475 27.897,6.879C28.085,7.283 28.456,7.748 29.01,8.275L31.872,11.023C32.445,11.568 32.971,12.146 33.451,12.757C33.93,13.359 34.315,14.063 34.606,14.872C34.898,15.67 35.044,16.648 35.044,17.804C35.044,20.134 34.611,21.962 33.747,23.287C32.891,24.603 31.397,25.261 29.264,25.261Z" style="fill:white;fill-rule:nonzero;"/>
            <path d="M43.473,25.035L43.473,0.226L50.028,0.226C51.4,0.226 52.485,0.531 53.284,1.142C54.092,1.753 54.67,2.622 55.018,3.75C55.366,4.877 55.54,6.221 55.54,7.781C55.54,9.285 55.394,10.596 55.103,11.714C54.811,12.823 54.29,13.683 53.538,14.294C52.795,14.905 51.738,15.21 50.366,15.21L48.35,15.21L48.35,25.035L43.473,25.035ZM48.35,10.756L48.632,10.756C49.553,10.756 50.117,10.497 50.324,9.98C50.531,9.463 50.634,8.702 50.634,7.697C50.634,6.757 50.531,6.033 50.324,5.526C50.127,5.009 49.652,4.75 48.9,4.75L48.35,4.75L48.35,10.756Z" style="fill:white;fill-rule:nonzero;"/>
            <path d="M57.118,25.035L57.118,0.226L67.042,0.226L67.042,5.018L62.165,5.018L62.165,9.853L66.845,9.853L66.845,14.519L62.165,14.519L62.165,20.2L67.366,20.2L67.366,25.035L57.118,25.035Z" style="fill:white;fill-rule:nonzero;"/>
            <path d="M71.144,25.035L71.144,4.99L68.198,4.99L68.198,0.226L79.052,0.226L79.052,4.99L76.106,4.99L76.106,25.035L71.144,25.035Z" style="fill:white;fill-rule:nonzero;"/>
            <rect x="80.208" y="0.226" width="4.793" height="24.81" style="fill:white;fill-rule:nonzero;"/>
            <path d="M89.103,25.035L89.103,4.99L86.157,4.99L86.157,0.226L97.011,0.226L97.011,4.99L94.065,4.99L94.065,25.035L89.103,25.035Z" style="fill:white;fill-rule:nonzero;"/>
            <path d="M104.285,25.261C102.02,25.261 100.385,24.697 99.379,23.569C98.383,22.441 97.885,20.646 97.885,18.184L97.885,15.76L102.79,15.76L102.79,18.861C102.79,19.434 102.875,19.885 103.044,20.214C103.223,20.534 103.528,20.693 103.96,20.693C104.412,20.693 104.722,20.562 104.891,20.299C105.069,20.036 105.159,19.603 105.159,19.002C105.159,18.241 105.083,17.606 104.933,17.099C104.783,16.582 104.52,16.093 104.144,15.633C103.777,15.163 103.265,14.618 102.607,13.998L100.38,11.883C98.717,10.314 97.885,8.519 97.885,6.498C97.885,4.384 98.374,2.772 99.351,1.663C100.338,0.554 101.761,0 103.622,0C105.896,0 107.508,0.606 108.457,1.818C109.416,3.031 109.895,4.873 109.895,7.344L104.849,7.344L104.849,5.639C104.849,5.3 104.75,5.037 104.553,4.849C104.365,4.661 104.106,4.567 103.777,4.567C103.383,4.567 103.091,4.68 102.903,4.906C102.725,5.122 102.635,5.404 102.635,5.751C102.635,6.099 102.729,6.475 102.917,6.879C103.105,7.283 103.477,7.748 104.031,8.275L106.893,11.023C107.466,11.568 107.992,12.146 108.471,12.757C108.951,13.359 109.336,14.063 109.627,14.872C109.919,15.67 110.064,16.648 110.064,17.804C110.064,20.134 109.632,21.962 108.767,23.287C107.912,24.603 106.418,25.261 104.285,25.261Z" style="fill:white;fill-rule:nonzero;"/>
            <path d="M118.494,25.035L118.494,0.226L125.049,0.226C126.421,0.226 127.506,0.531 128.305,1.142C129.113,1.753 129.691,2.622 130.039,3.75C130.386,4.877 130.56,6.221 130.56,7.781C130.56,9.285 130.415,10.596 130.123,11.714C129.832,12.823 129.31,13.683 128.559,14.294C127.816,14.905 126.759,15.21 125.387,15.21L123.371,15.21L123.371,25.035L118.494,25.035ZM123.371,10.756L123.653,10.756C124.574,10.756 125.138,10.497 125.345,9.98C125.551,9.463 125.655,8.702 125.655,7.697C125.655,6.757 125.551,6.033 125.345,5.526C125.147,5.009 124.673,4.75 123.921,4.75L123.371,4.75L123.371,10.756Z" style="fill:white;fill-rule:nonzero;"/>
            <path d="M132.139,25.035L132.139,0.226L137.101,0.226L137.101,20.806L142.204,20.806L142.204,25.035L132.139,25.035Z" style="fill:white;fill-rule:nonzero;"/>
            <path d="M142.937,25.035L145.333,0.226L153.749,0.226L156.103,25.035L151.409,25.035L151.056,21.032L148.068,21.032L147.758,25.035L142.937,25.035ZM148.42,17.071L150.676,17.071L149.59,4.454L149.365,4.454L148.42,17.071Z" style="fill:white;fill-rule:nonzero;"/>
            <path d="M159.387,25.035L159.387,4.99L156.441,4.99L156.441,0.226L167.295,0.226L167.295,4.99L164.349,4.99L164.349,25.035L159.387,25.035Z" style="fill:white;fill-rule:nonzero;"/>
            <path d="M174.569,25.261C172.304,25.261 170.669,24.697 169.663,23.569C168.667,22.441 168.169,20.646 168.169,18.184L168.169,15.76L173.075,15.76L173.075,18.861C173.075,19.434 173.159,19.885 173.329,20.214C173.507,20.534 173.813,20.693 174.245,20.693C174.696,20.693 175.006,20.562 175.175,20.299C175.354,20.036 175.443,19.603 175.443,19.002C175.443,18.241 175.368,17.606 175.217,17.099C175.067,16.582 174.804,16.093 174.428,15.633C174.062,15.163 173.549,14.618 172.892,13.998L170.664,11.883C169.001,10.314 168.169,8.519 168.169,6.498C168.169,4.384 168.658,2.772 169.635,1.663C170.622,0.554 172.046,0 173.906,0C176.181,0 177.792,0.606 178.742,1.818C179.7,3.031 180.179,4.873 180.179,7.344L175.133,7.344L175.133,5.639C175.133,5.3 175.034,5.037 174.837,4.849C174.649,4.661 174.39,4.567 174.062,4.567C173.667,4.567 173.376,4.68 173.188,4.906C173.009,5.122 172.92,5.404 172.92,5.751C172.92,6.099 173.014,6.475 173.202,6.879C173.39,7.283 173.761,7.748 174.315,8.275L177.177,11.023C177.75,11.568 178.276,12.146 178.756,12.757C179.235,13.359 179.62,14.063 179.912,14.872C180.203,15.67 180.349,16.648 180.349,17.804C180.349,20.134 179.916,21.962 179.052,23.287C178.196,24.603 176.702,25.261 174.569,25.261Z" style="fill:white;fill-rule:nonzero;"/>
            <g transform="matrix(1.18868,0,0,1.18868,-34.8954,-4.72356)">
                <path d="M207,14.41C207,20.278 202.063,25.035 195.973,25.035C189.884,25.035 184.947,20.278 184.947,14.41C184.947,8.541 189.884,3.784 195.973,3.784C202.063,3.784 207,8.541 207,14.41Z" style="fill:none;fill-rule:nonzero;stroke:white;stroke-width:0.84px;"/>
            </g>
            <g transform="matrix(1.18868,0,0,1.18868,-34.8954,-4.72356)">
                <path d="M195.973,23.431C201.234,23.431 205.396,19.337 205.396,14.41C205.396,9.483 201.234,5.388 195.973,5.388C190.713,5.388 186.551,9.483 186.551,14.41C186.551,19.337 190.713,23.431 195.973,23.431ZM195.973,25.035C202.063,25.035 207,20.278 207,14.41C207,8.541 202.063,3.784 195.973,3.784C189.884,3.784 184.947,8.541 184.947,14.41C184.947,20.278 189.884,25.035 195.973,25.035Z" style="fill:white;"/>
            </g>
            <g transform="matrix(1.18868,0,0,1.18868,-34.8954,-4.72356)">
                <path d="M203.391,14.41C203.391,18.506 200.07,21.827 195.973,21.827C191.877,21.827 188.556,18.506 188.556,14.41C188.556,10.313 191.877,6.992 195.973,6.992C200.07,6.992 203.391,10.313 203.391,14.41Z" style="fill:none;fill-rule:nonzero;"/>
            </g>
            <g transform="matrix(1.18868,0,0,1.18868,-34.8954,-4.72356)">
                <path d="M195.973,20.224C199.184,20.224 201.787,17.621 201.787,14.41C201.787,11.199 199.184,8.596 195.973,8.596C192.763,8.596 190.16,11.199 190.16,14.41C190.16,17.621 192.763,20.224 195.973,20.224ZM195.973,21.827C200.07,21.827 203.391,18.506 203.391,14.41C203.391,10.313 200.07,6.992 195.973,6.992C191.877,6.992 188.556,10.313 188.556,14.41C188.556,18.506 191.877,21.827 195.973,21.827Z" style="fill:white;"/>
            </g>
        </g>
    </g>
</svg>
